<svg width="353" height="512" viewBox="0 0 353 512" fill="none" xmlns="http://www.w3.org/2000/svg">
<path d="M42.6714 501L163.671 395C166.338 391.667 171.338 390 178.671 390C182.005 390 187.005 391.667 193.671 395L315.671 501C318.338 504.333 323.338 506 330.671 506C336.005 506 340.838 503.833 345.171 499.5C349.505 495.167 351.671 490 351.671 484V21C351.671 15 349.671 10 345.671 6C341.671 2 336.671 0 330.671 0H27.6714C21.0047 0 15.6714 2 11.6714 6C7.67139 10 5.67139 15 5.67139 21V486C5.67139 492 7.83805 497.167 12.1714 501.5C16.5047 505.833 21.6714 508 27.6714 508C33.0047 508 38.0047 505.667 42.6714 501ZM261.671 43H304.671V439L261.671 401V43ZM133.671 43H219.671V365C209.671 355 195.338 350 176.671 350C162.671 350 148.338 355 133.671 365V43ZM48.6714 43H91.6714V401L48.6714 439V43Z" fill="#210410"/>
<path d="M133.671 43H219.671V365C209.671 355 195.338 350 176.671 350C162.671 350 148.338 355 133.671 365V43Z" fill="#4C0506"/>
<path d="M261.671 43H304.671V439L261.671 401V43Z" fill="#F3BE1B"/>
<path d="M48.6714 43H91.6714V401L48.6714 439V43Z" fill="#F3BE1B"/>
</svg>
