<svg width="36" height="36" viewBox="0 0 36 36" fill="none" xmlns="http://www.w3.org/2000/svg">
<g clip-path="url(#clip0_96_3588)">
<path d="M15.9821 32.5H19.9179C19.7924 32.7793 19.6083 33.031 19.3754 33.2368C18.9922 33.5754 18.5018 33.7678 17.9906 33.7801C17.4654 33.7872 16.9554 33.6035 16.5552 33.2631C16.3081 33.0528 16.1132 32.7915 15.9821 32.5Z" fill="#CCBD8F" stroke="#210410"/>
<path d="M31.85 28.5813V29.95H4.05005V28.5813L4.05167 28.5799L4.05173 28.5799L4.06206 28.5706C5.07824 27.6484 5.96661 26.5946 6.70359 25.4371L6.72891 25.3973L6.75038 25.3553C7.57679 23.7393 8.07211 21.9745 8.20727 20.1645L8.21005 20.1273V20.09L8.21005 15.15L8.21005 15.1476C8.20435 12.7792 9.05571 10.4887 10.6069 8.69891C12.1582 6.90917 14.3045 5.74105 16.6497 5.41022L17.51 5.28886V4.42002V3.11002C17.51 3.02118 17.5453 2.93597 17.6082 2.87314C17.671 2.81032 17.7562 2.77502 17.845 2.77502C17.9339 2.77502 18.0191 2.81032 18.0819 2.87314C18.1448 2.93597 18.18 3.02118 18.18 3.11002V4.37002V5.24975L19.0526 5.36187C19.8946 5.47007 20.7176 5.6897 21.5 6.01432C21.5002 7.96849 22.1737 9.86313 23.4075 11.379C24.4933 12.7132 25.9545 13.6821 27.5937 14.1659C27.6289 14.4938 27.6477 14.8234 27.65 15.1535V20.09V20.1273L27.6528 20.1645C27.788 21.9745 28.2833 23.7393 29.1097 25.3553L29.1327 25.4003L29.1601 25.4428C29.9101 26.6033 30.8131 27.6575 31.8448 28.5767L31.8484 28.5799L31.85 28.5813Z" fill="#CCBD8F" stroke="#210410" stroke-width="2"/>
<path d="M34 6C34 8.20914 32.2091 10 30 10C27.7909 10 26 8.20914 26 6C26 3.79086 27.7909 2 30 2C32.2091 2 34 3.79086 34 6Z" fill="#662D35" stroke="black" stroke-width="2"/>
</g>
<defs>
<clipPath id="clip0_96_3588">
<rect width="36" height="36" fill="white"/>
</clipPath>
</defs>
</svg>
