<svg width="48" height="48" viewBox="0 0 48 48" fill="none" xmlns="http://www.w3.org/2000/svg">
<path d="M40.684 16.894L42.894 15.788C43.1564 15.6575 43.3869 15.4709 43.5691 15.2413C43.7512 15.0117 43.8806 14.7449 43.948 14.4596C44.0154 14.1744 44.0192 13.8779 43.959 13.591C43.8989 13.3042 43.7763 13.0341 43.6 12.8L37.6 4.8C37.4137 4.55161 37.1721 4.35 36.8944 4.21115C36.6167 4.07229 36.3105 4 36 4H12C11.6895 4 11.3833 4.07229 11.1056 4.21115C10.8279 4.35 10.5863 4.55161 10.4 4.8L4.4 12.8C4.22433 13.0342 4.10224 13.3042 4.04234 13.5908C3.98244 13.8774 3.98619 14.1736 4.05334 14.4586C4.12048 14.7436 4.24938 15.0104 4.43093 15.2401C4.61247 15.4698 4.84224 15.6568 5.104 15.788L7.314 16.894L5.052 21.418C4.3629 22.8075 4.00294 24.337 4 25.888V27.07C4.00795 29.5111 4.75677 31.8923 6.1474 33.8986C7.53803 35.9049 9.50495 37.4418 11.788 38.306L18.65 40.878C20.1298 41.4301 21.4731 42.2952 22.588 43.414C22.7733 43.6001 22.9935 43.7477 23.2359 43.8485C23.4784 43.9492 23.7384 44.0011 24.001 44.0011C24.2636 44.0011 24.5236 43.9492 24.7661 43.8485C25.0085 43.7477 25.2287 43.6001 25.414 43.414C26.529 42.2958 27.8723 41.4314 29.352 40.88L36.216 38.306C38.498 37.4407 40.4637 35.9034 41.8535 33.8973C43.2434 31.8911 43.9918 29.5105 44 27.07V25.888C44 24.346 43.634 22.798 42.946 21.416L40.684 16.894ZM40 27.07C39.9945 28.6973 39.4952 30.2846 38.5681 31.6219C37.641 32.9593 36.3299 33.9838 34.808 34.56L27.946 37.134C26.5263 37.6643 25.1952 38.4068 23.998 39.336C22.8007 38.4065 21.4696 37.6634 20.05 37.132L13.192 34.56C11.6701 33.9838 10.359 32.9593 9.4319 31.6219C8.50484 30.2846 8.00553 28.6973 8 27.07V25.888C8 24.962 8.218 24.032 8.632 23.204L10.894 18.682C11.3672 17.7326 11.4444 16.6342 11.1089 15.6279C10.7733 14.6216 10.0523 13.7894 9.104 13.314L9.038 13.284L13 8H35L38.962 13.284L38.894 13.318C37.9461 13.7938 37.2254 14.626 36.8899 15.6322C36.5544 16.6383 36.6314 17.7365 37.104 18.686L39.366 23.206C39.782 24.034 40 24.962 40 25.888V27.07Z" fill="#331606"/>
<path d="M40 27.07C39.9945 28.6973 39.4952 30.2846 38.5681 31.6219C37.641 32.9593 36.3299 33.9838 34.808 34.56L27.946 37.134C26.5263 37.6643 25.1952 38.4068 23.998 39.336C22.8007 38.4065 21.4696 37.6634 20.05 37.132L13.192 34.56C11.6701 33.9838 10.359 32.9593 9.4319 31.6219C8.50484 30.2846 8.00553 28.6973 8 27.07V25.888C8 24.962 8.218 24.032 8.632 23.204L10.894 18.682C11.3672 17.7326 11.4444 16.6342 11.1089 15.6279C10.7733 14.6216 10.0523 13.7894 9.104 13.314L9.038 13.284L13 8H35L38.962 13.284L38.894 13.318C37.9461 13.7938 37.2254 14.626 36.8899 15.6322C36.5544 16.6383 36.6314 17.7365 37.104 18.686L39.366 23.206C39.782 24.034 40 24.962 40 25.888V27.07Z" fill="#E4D3A0"/>
</svg>
