<svg width="352" height="512" viewBox="0 0 352 512" fill="none" xmlns="http://www.w3.org/2000/svg">
<path d="M42 501L163 395C165.667 391.667 170.667 390 178 390C181.333 390 186.333 391.667 193 395L315 501C317.667 504.333 322.667 506 330 506C335.333 506 340.167 503.833 344.5 499.5C348.833 495.167 351 490 351 484V21C351 15 349 10 345 6C341 2 336 0 330 0H27C20.3333 0 15 2 11 6C7 10 5 15 5 21V486C5 492 7.16667 497.167 11.5 501.5C15.8333 505.833 21 508 27 508C32.3333 508 37.3333 505.667 42 501ZM261 43H304V439L261 401V43ZM133 43H219V365C209 355 194.667 350 176 350C162 350 147.667 355 133 365V43ZM48 43H91V401L48 439V43Z" fill="#210410"/>
<path d="M133 43H219V365C209 355 194.667 350 176 350C162 350 147.667 355 133 365V43Z" fill="#0A314A"/>
<path d="M261 43H304V439L261 401V43Z" fill="#A67B53"/>
<path d="M48 43H91V401L48 439V43Z" fill="#A67B53"/>
</svg>
