<svg width="48" height="48" viewBox="0 0 48 48" fill="none" xmlns="http://www.w3.org/2000/svg">
<path d="M23.103 20.817C23.1856 20.6495 23.3133 20.5085 23.4718 20.4099C23.6304 20.3113 23.8133 20.259 24 20.259C24.1867 20.259 24.3697 20.3113 24.5282 20.4099C24.6867 20.5085 24.8145 20.6495 24.897 20.817L27.882 26.865C27.9537 27.0106 28.0597 27.1365 28.1908 27.232C28.322 27.3275 28.4745 27.3896 28.635 27.413L35.31 28.383C35.4945 28.41 35.6678 28.488 35.8103 28.6082C35.9528 28.7285 36.0589 28.8861 36.1165 29.0635C36.1741 29.2408 36.181 29.4307 36.1364 29.6117C36.0918 29.7928 35.9974 29.9577 35.864 30.088L31.034 34.796C30.9179 34.9091 30.831 35.0488 30.7808 35.203C30.7306 35.3571 30.7187 35.5212 30.746 35.681L31.886 42.329C31.9174 42.5128 31.8968 42.7016 31.8265 42.8743C31.7562 43.047 31.6391 43.1966 31.4883 43.3062C31.3375 43.4158 31.159 43.4811 30.9731 43.4946C30.7872 43.5082 30.6011 43.4696 30.436 43.383L24.466 40.245C24.3225 40.1695 24.1627 40.13 24.0005 40.13C23.8383 40.13 23.6786 40.1695 23.535 40.245L17.565 43.383C17.3999 43.4701 17.2136 43.5092 17.0273 43.4959C16.8411 43.4826 16.6622 43.4174 16.5111 43.3077C16.36 43.198 16.2426 43.0482 16.1723 42.8752C16.1019 42.7023 16.0814 42.513 16.113 42.329L17.253 35.681C17.2805 35.5213 17.2687 35.3573 17.2187 35.2031C17.1687 35.0489 17.082 34.9092 16.966 34.796L12.136 30.088C12.0023 29.9578 11.9077 29.7927 11.863 29.6116C11.8182 29.4304 11.825 29.2403 11.8826 29.0628C11.9403 28.8853 12.0464 28.7274 12.1891 28.6071C12.3318 28.4868 12.5053 28.4088 12.69 28.382L19.365 27.412C19.5255 27.3887 19.6779 27.3267 19.809 27.2314C19.9402 27.1362 20.0463 27.0104 20.118 26.865L23.103 20.817Z" fill="#E4D3A0"/>
<path d="M36 4H12V14L24 19L36 14V4Z" fill="#E4D3A0"/>
<path d="M23.103 20.817C23.1856 20.6495 23.3133 20.5085 23.4718 20.4099C23.6304 20.3113 23.8133 20.259 24 20.259C24.1867 20.259 24.3697 20.3113 24.5282 20.4099C24.6867 20.5085 24.8145 20.6495 24.897 20.817L27.882 26.865C27.9537 27.0106 28.0597 27.1365 28.1908 27.232C28.322 27.3275 28.4745 27.3896 28.635 27.413L35.31 28.383C35.4945 28.41 35.6678 28.488 35.8103 28.6082C35.9528 28.7285 36.0589 28.8861 36.1165 29.0635C36.1741 29.2408 36.181 29.4307 36.1364 29.6117C36.0918 29.7928 35.9974 29.9577 35.864 30.088L31.034 34.796C30.9179 34.9091 30.831 35.0488 30.7808 35.203C30.7306 35.3571 30.7187 35.5212 30.746 35.681L31.886 42.329C31.9174 42.5128 31.8968 42.7016 31.8265 42.8743C31.7562 43.047 31.6391 43.1966 31.4883 43.3062C31.3375 43.4158 31.159 43.4811 30.9731 43.4946C30.7872 43.5082 30.6011 43.4696 30.436 43.383L24.466 40.245C24.3225 40.1695 24.1627 40.13 24.0005 40.13C23.8383 40.13 23.6786 40.1695 23.535 40.245L17.565 43.383C17.3999 43.4701 17.2136 43.5092 17.0273 43.4959C16.8411 43.4826 16.6622 43.4174 16.5111 43.3077C16.36 43.198 16.2426 43.0482 16.1723 42.8752C16.1019 42.7023 16.0814 42.513 16.113 42.329L17.253 35.681C17.2805 35.5213 17.2687 35.3573 17.2187 35.2031C17.1687 35.0489 17.082 34.9092 16.966 34.796L12.136 30.088C12.0023 29.9578 11.9077 29.7927 11.863 29.6116C11.8182 29.4304 11.825 29.2403 11.8826 29.0628C11.9403 28.8853 12.0464 28.7274 12.1891 28.6071C12.3318 28.4868 12.5053 28.4088 12.69 28.382L19.365 27.412C19.5255 27.3887 19.6779 27.3267 19.809 27.2314C19.9402 27.1362 20.0463 27.0104 20.118 26.865L23.103 20.817Z" stroke="#331606" stroke-width="4" stroke-linecap="round" stroke-linejoin="round"/>
<path d="M36 4H12V14L24 19L36 14V4Z" stroke="#331606" stroke-width="4" stroke-linecap="round" stroke-linejoin="round"/>
</svg>
